<?xml version="1.0" standalone="no"?>
<!DOCTYPE svg PUBLIC "-//W3C//DTD SVG 20010904//EN"
 "http://www.w3.org/TR/2001/REC-SVG-20010904/DTD/svg10.dtd">
<svg version="1.0" xmlns="http://www.w3.org/2000/svg"
 width="494.000000pt" height="82.000000pt" viewBox="0 0 494.000000 82.000000"
 preserveAspectRatio="xMidYMid meet">

<g transform="translate(0.000000,82.000000) scale(0.100000,-0.100000)"
fill="#000000" stroke="none">
<path d="M300 731 c-88 -27 -174 -103 -212 -186 -34 -75 -32 -201 4 -270 28
-52 80 -115 96 -115 6 0 15 26 20 58 14 74 51 252 58 275 5 15 20 17 125 17
65 0 119 3 119 8 0 10 19 131 26 164 5 25 2 28 -47 42 -55 17 -146 20 -189 7z"/>
<path d="M564 595 c-6 -42 -8 -78 -5 -80 8 -9 141 -5 141 3 0 12 -58 103 -83
130 -34 37 -43 27 -53 -53z"/>
<path d="M2003 499 c-67 -19 -113 -128 -83 -198 25 -62 132 -68 183 -11 32 36
28 50 -13 50 -19 0 -33 -7 -40 -21 -13 -23 -48 -23 -63 2 -15 24 1 88 28 115
25 25 55 23 55 -2 0 -9 12 -14 35 -14 37 0 44 14 25 50 -8 16 -70 42 -90 39
-3 0 -19 -5 -37 -10z"/>
<path d="M2965 503 c-59 -15 -105 -85 -105 -159 0 -53 44 -94 102 -94 83 0
138 58 140 145 1 57 -22 91 -69 104 -21 6 -40 10 -43 10 -3 -1 -14 -4 -25 -6z
m65 -103 c0 -52 -18 -89 -47 -96 -48 -13 -67 34 -39 100 29 69 86 66 86 -4z"/>
<path d="M4226 500 c-61 -19 -96 -73 -96 -150 0 -41 5 -56 25 -75 52 -53 185
-14 185 54 0 19 -56 12 -75 -9 -50 -56 -86 11 -51 95 12 27 21 35 41 35 14 0
28 -7 31 -15 4 -9 19 -15 40 -15 26 0 34 4 34 18 0 44 -76 79 -134 62z"/>
<path d="M886 483 c-8 -30 -46 -212 -46 -223 0 -7 14 -10 33 -8 29 3 33 7 41
46 8 39 11 42 41 42 45 0 94 19 105 40 16 31 11 79 -10 100 -28 28 -156 30
-164 3z m112 -57 c4 -20 -13 -36 -40 -36 -18 0 -26 39 -11 54 13 13 48 1 51
-18z"/>
<path d="M1100 385 c-12 -63 -23 -118 -24 -122 -1 -4 13 -9 31 -11 33 -3 35
-1 48 66 6 29 10 33 33 30 26 -3 27 -6 24 -50 -4 -48 -3 -48 27 -48 36 0 47
26 38 89 -4 30 -1 40 14 49 13 8 19 24 19 47 0 49 -28 65 -115 65 l-71 0 -24
-115z m138 43 c-2 -18 -11 -24 -34 -26 -29 -3 -31 -1 -27 22 4 21 11 26 35 26
25 0 29 -4 26 -22z"/>
<path d="M1342 393 c-29 -144 -29 -145 10 -141 l32 3 22 105 c31 142 31 140
-9 140 l-32 0 -23 -107z"/>
<path d="M1460 488 c0 -7 7 -60 15 -118 8 -58 15 -108 15 -112 0 -5 18 -8 39
-8 l39 0 66 120 c36 65 66 122 66 125 0 3 -16 5 -35 5 -34 0 -36 -3 -79 -87
l-44 -88 -7 88 -7 87 -34 0 c-21 0 -34 -5 -34 -12z"/>
<path d="M1700 380 c-33 -66 -60 -122 -60 -125 0 -3 15 -5 33 -5 24 0 36 7 48
28 12 22 22 27 50 26 29 -1 34 -5 37 -27 3 -22 8 -27 32 -27 16 0 31 3 33 8 4
5 -17 222 -22 240 -1 1 -21 2 -46 2 l-45 0 -60 -120z m100 20 c0 -33 -3 -40
-20 -40 -11 0 -20 2 -20 5 0 7 33 75 37 75 2 0 3 -18 3 -40z"/>
<path d="M2162 488 c40 -106 48 -148 40 -186 -11 -47 -8 -52 29 -52 28 0 30 3
44 65 4 17 31 62 61 102 30 40 54 75 54 78 0 3 -15 5 -34 5 -30 0 -38 -6 -67
-51 -18 -29 -34 -48 -35 -43 -2 5 -8 28 -14 52 -10 40 -13 42 -46 42 -25 0
-35 -4 -32 -12z"/>
<path d="M2420 497 c0 -2 -11 -55 -25 -117 -14 -62 -25 -117 -25 -122 0 -5 15
-8 33 -6 29 3 33 7 41 46 8 39 11 42 43 42 54 0 101 25 110 57 19 74 -11 103
-108 103 -38 0 -69 -2 -69 -3z m108 -74 c-2 -22 -9 -29 -30 -31 -24 -3 -28 0
-28 21 0 30 7 37 37 37 21 0 24 -4 21 -27z"/>
<path d="M2655 488 c-9 -25 -45 -203 -45 -221 0 -15 6 -18 32 -15 31 3 34 6
42 51 8 44 10 48 35 45 25 -3 26 -6 23 -51 l-4 -48 33 3 c31 3 34 7 40 43 4
22 2 48 -3 58 -8 15 -5 22 11 34 29 20 29 77 -1 97 -28 20 -156 22 -163 4z
m113 -60 c-2 -18 -11 -24 -34 -26 -29 -3 -31 -1 -27 22 4 21 11 26 35 26 25 0
29 -4 26 -22z"/>
<path d="M3245 478 c-15 -70 -45 -213 -45 -220 0 -4 13 -8 29 -8 29 0 30 2 46
78 23 107 23 108 24 9 l1 -88 28 3 c24 3 31 13 62 85 19 45 36 81 37 79 2 -2
-3 -32 -12 -67 -21 -92 -20 -99 14 -99 20 0 31 6 35 18 9 30 46 206 46 219 0
9 -15 13 -48 13 l-49 0 -29 -72 -29 -73 -3 73 -3 72 -49 0 c-43 0 -50 -3 -55
-22z"/>
<path d="M3542 393 c-32 -155 -37 -143 63 -143 73 0 86 3 95 19 15 30 14 31
-43 31 -61 0 -67 3 -60 31 4 15 14 19 54 19 44 0 51 3 59 26 6 14 10 27 10 30
0 2 -24 4 -54 4 -49 0 -54 2 -49 20 4 16 15 20 62 22 49 3 56 6 59 26 3 21 1
22 -85 22 l-88 0 -23 -107z"/>
<path d="M3762 388 c-12 -62 -22 -119 -22 -127 0 -11 15 -13 73 -9 121 8 167
48 167 147 0 43 -4 53 -31 75 -26 22 -40 26 -97 26 l-67 0 -23 -112z m136 50
c7 -7 12 -29 12 -50 0 -44 -35 -88 -70 -88 -23 0 -25 13 -9 93 10 48 15 57 33
57 12 0 27 -5 34 -12z"/>
<path d="M4046 483 c-8 -29 -46 -212 -46 -223 0 -12 57 -13 64 -1 4 5 15 54
26 108 11 54 23 106 26 116 4 14 -1 17 -30 17 -24 0 -36 -5 -40 -17z"/>
<path d="M4410 380 c-33 -66 -60 -122 -60 -125 0 -3 13 -5 29 -5 21 0 35 8 49
28 15 21 28 27 53 26 29 -1 34 -5 37 -27 3 -22 8 -27 32 -27 16 0 31 3 33 8 3
5 -17 227 -22 240 -1 1 -21 2 -46 2 l-45 0 -60 -120z m100 20 c0 -33 -3 -40
-20 -40 -11 0 -20 2 -20 4 0 9 31 76 35 76 3 0 5 -18 5 -40z"/>
<path d="M4665 488 c-7 -20 -45 -208 -45 -224 0 -22 166 -20 174 2 13 34 7 39
-44 36 -58 -4 -58 -5 -35 98 21 95 20 100 -15 100 -17 0 -33 -6 -35 -12z"/>
<path d="M300 458 c0 -7 -16 -84 -34 -171 l-34 -158 32 -16 c17 -9 64 -18 106
-21 98 -5 169 20 238 86 69 65 94 119 100 215 l5 77 -82 0 c-89 0 -86 2 -95
-67 -6 -42 -6 -43 24 -43 23 0 30 -4 30 -20 0 -17 -7 -20 -51 -20 l-52 0 7 75
7 75 -101 0 c-73 0 -100 -3 -100 -12z m76 -22 c3 -8 2 -34 -3 -58 -7 -33 -13
-43 -28 -43 -17 0 -19 6 -17 34 7 67 34 104 48 67z m83 -53 c-10 -52 -21 -69
-39 -58 -8 5 -10 22 -5 54 8 55 22 76 40 61 9 -7 10 -23 4 -57z"/>
</g>
</svg>
