<?xml version="1.0" standalone="no"?>
<!DOCTYPE svg PUBLIC "-//W3C//DTD SVG 20010904//EN"
 "http://www.w3.org/TR/2001/REC-SVG-20010904/DTD/svg10.dtd">
<svg version="1.0" xmlns="http://www.w3.org/2000/svg"
 width="95.000000pt" height="92.000000pt" viewBox="0 0 95.000000 92.000000"
 preserveAspectRatio="xMidYMid meet">

<g transform="translate(0.000000,92.000000) scale(0.100000,-0.100000)"
fill="#000000" stroke="none">
<path d="M340 871 c-197 -63 -326 -273 -291 -472 15 -87 60 -174 119 -233 43
-41 51 -46 55 -30 3 11 25 111 48 224 24 113 47 211 52 218 7 9 51 12 161 12
l152 0 17 127 c20 142 23 134 -57 158 -66 20 -188 18 -256 -4z"/>
<path d="M716 788 c-8 -34 -26 -165 -26 -182 0 -13 16 -16 96 -16 94 0 95 0
89 23 -18 57 -96 166 -136 188 -15 8 -19 5 -23 -13z"/>
<path d="M360 535 c0 -3 -21 -103 -46 -222 -53 -248 -56 -230 45 -260 71 -20
196 -13 271 16 163 63 270 223 270 402 l0 69 -109 0 -109 0 -6 -27 c-3 -16 -8
-49 -12 -75 l-6 -47 38 -3 c31 -2 39 -7 39 -23 0 -17 -8 -20 -56 -23 -74 -4
-81 6 -69 89 6 35 12 74 15 87 5 22 5 22 -130 22 -74 0 -135 -2 -135 -5z m208
-53 c2 -12 -2 -47 -8 -77 -9 -43 -16 -55 -30 -55 -10 0 -21 4 -24 9 -8 12 14
122 27 139 14 18 31 10 35 -16z m-112 -32 c-9 -67 -22 -100 -40 -100 -24 0
-28 17 -16 78 15 70 16 72 42 72 19 0 20 -4 14 -50z"/>
</g>
</svg>
