<?xml version="1.0" standalone="no"?>
<!DOCTYPE svg PUBLIC "-//W3C//DTD SVG 20010904//EN"
 "http://www.w3.org/TR/2001/REC-SVG-20010904/DTD/svg10.dtd">
<svg version="1.0" xmlns="http://www.w3.org/2000/svg"
 width="1959.000000pt" height="480.000000pt" viewBox="0 0 1959.000000 480.000000"
 preserveAspectRatio="xMidYMid meet">

<g transform="translate(0.000000,480.000000) scale(0.100000,-0.100000)"
fill="#000000" stroke="none">
<path d="M2050 4335 c0 -12 -16 -15 -80 -15 -64 0 -80 -3 -80 -15 0 -12 -14
-15 -65 -15 -37 0 -65 -4 -65 -10 0 -5 -18 -10 -40 -10 -29 0 -40 -4 -40 -15
0 -11 -11 -15 -40 -15 -29 0 -40 -4 -40 -15 0 -9 -9 -15 -25 -15 -14 0 -25 -4
-25 -10 0 -5 -18 -10 -40 -10 -29 0 -40 -4 -40 -15 0 -10 -10 -15 -30 -15 -20
0 -30 -5 -30 -15 0 -9 -9 -15 -25 -15 -14 0 -25 -4 -25 -10 0 -5 -7 -10 -15
-10 -8 0 -15 -7 -15 -15 0 -9 -9 -15 -25 -15 -16 0 -25 -6 -25 -15 0 -9 -9
-15 -25 -15 -14 0 -25 -4 -25 -10 0 -5 -7 -10 -15 -10 -8 0 -15 -7 -15 -15 0
-9 -9 -15 -25 -15 -16 0 -25 -6 -25 -15 0 -8 -7 -15 -15 -15 -8 0 -15 -4 -15
-10 0 -5 -7 -10 -15 -10 -8 0 -15 -7 -15 -15 0 -9 -9 -15 -25 -15 -16 0 -25
-6 -25 -15 0 -8 -5 -15 -11 -15 -14 0 -39 -25 -39 -39 0 -6 -7 -11 -15 -11 -8
0 -15 -7 -15 -15 0 -8 -5 -15 -11 -15 -14 0 -39 -25 -39 -39 0 -6 -7 -11 -15
-11 -8 0 -15 -7 -15 -15 0 -8 -5 -15 -11 -15 -14 0 -39 -25 -39 -39 0 -6 -7
-11 -15 -11 -8 0 -15 -7 -15 -15 0 -8 -7 -15 -15 -15 -9 0 -15 -9 -15 -25 0
-14 -4 -25 -10 -25 -5 0 -10 -7 -10 -15 0 -8 -7 -15 -15 -15 -8 0 -15 -4 -15
-10 0 -5 -7 -10 -15 -10 -9 0 -15 -10 -15 -26 0 -26 -20 -54 -39 -54 -6 0 -11
-13 -11 -30 0 -20 -5 -30 -15 -30 -9 0 -15 -9 -15 -25 0 -14 -4 -25 -10 -25
-5 0 -10 -7 -10 -15 0 -8 -7 -15 -15 -15 -9 0 -15 -9 -15 -25 0 -16 -6 -25
-15 -25 -9 0 -15 -9 -15 -25 0 -14 -4 -25 -10 -25 -5 0 -10 -18 -10 -40 0 -29
-4 -40 -15 -40 -10 0 -15 -10 -15 -30 0 -20 -5 -30 -15 -30 -11 0 -15 -11 -15
-40 0 -22 -4 -40 -10 -40 -5 0 -10 -22 -10 -50 0 -38 -4 -50 -15 -50 -12 0
-15 -13 -15 -55 0 -42 -3 -55 -15 -55 -12 0 -15 -17 -15 -95 0 -57 -4 -95 -10
-95 -6 0 -10 -68 -10 -185 0 -117 4 -185 10 -185 6 0 10 -37 10 -90 0 -73 3
-90 15 -90 12 0 15 -13 15 -55 0 -42 3 -55 15 -55 12 0 15 -13 15 -55 0 -30 5
-55 10 -55 6 0 10 -18 10 -40 0 -29 4 -40 15 -40 9 0 15 -9 15 -25 0 -16 6
-25 15 -25 11 0 15 -11 15 -40 0 -22 5 -40 10 -40 6 0 10 -11 10 -25 0 -16 6
-25 15 -25 10 0 15 -10 15 -30 0 -20 5 -30 15 -30 9 0 15 -9 15 -25 0 -14 5
-25 10 -25 6 0 10 -7 10 -15 0 -8 7 -15 15 -15 9 0 15 -9 15 -25 0 -16 6 -25
15 -25 8 0 15 -7 15 -15 0 -8 5 -15 10 -15 6 0 10 -11 10 -25 0 -16 6 -25 15
-25 8 0 15 -7 15 -15 0 -8 7 -15 15 -15 9 0 15 -9 15 -25 0 -14 5 -25 10 -25
6 0 10 -7 10 -15 0 -8 7 -15 15 -15 8 0 15 -4 15 -10 0 -5 7 -10 15 -10 8 0
15 -7 15 -15 0 -8 5 -15 10 -15 6 0 10 -7 10 -15 0 -8 7 -15 15 -15 8 0 15 -4
15 -10 0 -5 7 -10 15 -10 8 0 15 -7 15 -15 0 -8 5 -15 10 -15 6 0 10 -7 10
-15 0 -8 7 -15 15 -15 8 0 15 -4 15 -10 0 -5 7 -10 15 -10 8 0 15 -7 15 -15 0
-8 5 -15 10 -15 6 0 10 -7 10 -15 0 -8 7 -15 15 -15 8 0 15 -4 15 -10 0 -5 7
-10 15 -10 8 0 15 -7 15 -15 0 -9 9 -15 25 -15 16 0 25 -6 25 -15 0 -8 7 -15
15 -15 12 0 15 13 15 55 0 30 5 55 10 55 6 0 10 28 10 65 0 51 3 65 15 65 12
0 15 14 15 70 0 56 3 70 15 70 11 0 15 12 15 50 0 28 5 50 10 50 6 0 10 30 10
70 0 56 3 70 15 70 12 0 15 14 15 65 0 51 3 65 15 65 12 0 15 14 15 65 0 37 4
65 10 65 6 0 10 25 10 55 0 42 3 55 15 55 12 0 15 14 15 65 0 51 3 65 15 65
12 0 15 14 15 70 0 40 4 70 10 70 6 0 10 23 10 50 0 38 4 50 15 50 12 0 15 16
15 80 0 64 3 80 15 80 12 0 15 13 15 55 0 30 5 55 10 55 6 0 10 28 10 65 0 51
3 65 15 65 12 0 15 14 15 65 0 51 3 65 15 65 12 0 15 14 15 66 0 64 13 94 39
94 6 0 11 7 11 15 0 8 7 15 15 15 8 0 15 7 15 15 0 13 82 15 675 15 l675 0 0
25 c0 16 6 25 15 25 12 0 15 18 15 105 0 87 3 105 15 105 12 0 15 17 15 95 0
57 4 95 10 95 6 0 10 33 10 80 0 64 3 80 15 80 12 0 15 17 15 95 0 78 3 95 15
95 12 0 15 18 15 105 0 63 4 105 10 105 6 0 10 28 10 65 0 37 -4 65 -10 65 -5
0 -10 7 -10 15 0 10 -10 15 -30 15 -20 0 -30 5 -30 15 0 11 -11 15 -40 15 -22
0 -40 5 -40 10 0 6 -11 10 -25 10 -16 0 -25 6 -25 15 0 11 -11 15 -40 15 -29
0 -40 4 -40 15 0 11 -11 15 -40 15 -22 0 -40 5 -40 10 0 6 -28 10 -65 10 -51
0 -65 3 -65 15 0 12 -16 15 -80 15 -64 0 -80 3 -80 15 0 13 -31 15 -215 15
-184 0 -215 -2 -215 -15z"/>
<path d="M3373 3955 c-9 -9 -13 -46 -13 -105 0 -73 -3 -90 -15 -90 -12 0 -15
-17 -15 -95 0 -78 -3 -95 -15 -95 -12 0 -15 -17 -15 -90 0 -53 -4 -90 -10 -90
-6 0 -10 -38 -10 -95 0 -78 -3 -95 -15 -95 -12 0 -15 -18 -15 -105 l0 -105
425 0 c277 0 425 3 425 10 0 6 -4 10 -10 10 -5 0 -10 18 -10 40 0 29 -4 40
-15 40 -11 0 -15 11 -15 40 0 29 -4 40 -15 40 -10 0 -15 10 -15 30 0 17 -4 30
-10 30 -5 0 -10 11 -10 25 0 16 -6 25 -15 25 -9 0 -15 9 -15 25 0 16 -6 25
-15 25 -9 0 -15 10 -15 26 0 26 -20 54 -39 54 -6 0 -11 14 -11 30 0 17 -5 30
-11 30 -19 0 -39 28 -39 54 0 16 -6 26 -15 26 -8 0 -15 5 -15 10 0 6 -7 10
-15 10 -9 0 -15 10 -15 26 0 26 -20 54 -39 54 -6 0 -11 7 -11 15 0 8 -7 15
-15 15 -8 0 -15 5 -15 11 0 6 -6 17 -14 25 -8 8 -19 14 -25 14 -6 0 -11 7 -11
15 0 8 -7 15 -15 15 -8 0 -15 5 -15 11 0 6 -6 17 -14 25 -8 8 -19 14 -25 14
-6 0 -11 7 -11 15 0 8 -7 15 -15 15 -8 0 -15 5 -15 11 0 14 -25 39 -39 39 -6
0 -11 7 -11 15 0 8 -7 15 -15 15 -8 0 -15 7 -15 15 0 9 -9 15 -25 15 -14 0
-25 5 -25 10 0 15 -23 12 -37 -5z"/>
<path d="M12162 3159 c-34 -13 -45 -53 -26 -91 9 -18 20 -44 25 -60 l8 -28
-275 0 c-298 0 -318 -3 -367 -55 -42 -46 -47 -91 -47 -444 l0 -329 -47 -42
c-27 -23 -88 -68 -138 -101 -116 -75 -115 -74 -115 -113 0 -90 97 -71 254 49
l46 35 0 -43 c0 -68 -27 -225 -55 -322 -29 -98 -84 -223 -140 -314 -40 -66
-44 -100 -15 -126 31 -28 77 -10 123 50 54 70 131 234 161 340 50 177 56 252
56 758 0 467 2 498 34 519 6 4 156 8 334 8 357 0 337 4 308 -65 l-15 -35 -295
0 c-283 0 -297 -1 -316 -20 -28 -28 -25 -64 6 -89 25 -20 39 -21 281 -21 l254
0 -12 -21 c-6 -12 -44 -55 -85 -97 -67 -68 -75 -73 -93 -61 -236 173 -243 176
-289 143 -14 -9 -22 -26 -22 -44 0 -24 14 -40 89 -99 48 -39 93 -77 100 -84 9
-12 -9 -25 -101 -71 -62 -31 -119 -56 -125 -56 -14 0 -43 -51 -43 -75 0 -22
37 -55 63 -55 12 0 51 14 85 30 35 17 65 30 65 30 1 0 1 -89 -1 -197 -2 -189
-2 -200 20 -243 38 -74 60 -80 285 -80 l191 0 4 -127 c4 -141 -1 -166 -33
-183 -27 -15 -136 -15 -223 1 l-70 12 -23 -27 c-27 -32 -28 -47 -8 -86 20 -38
43 -44 195 -44 148 -1 209 13 255 60 41 40 45 64 45 245 l0 149 188 0 c206 0
235 7 276 63 20 27 21 42 21 243 0 186 2 213 15 208 118 -45 169 -58 194 -46
35 16 50 56 34 89 -10 20 -30 32 -84 49 -89 29 -244 100 -244 112 0 5 19 22
43 37 88 58 159 118 168 142 12 33 3 62 -24 73 -20 8 -19 9 9 9 40 1 84 35 84
66 0 13 -10 33 -22 45 -21 19 -33 20 -371 20 l-349 0 6 23 c4 12 9 34 12 50
l7 27 357 0 358 0 25 30 c29 33 26 62 -6 85 -18 13 -88 15 -443 15 l-422 0
-22 73 c-12 39 -26 77 -32 84 -15 19 -61 31 -86 22z m784 -573 c-22 -19 -79
-59 -128 -89 l-89 -56 -52 31 c-51 29 -187 134 -187 143 0 3 111 5 248 5 l247
-1 -39 -33z m-420 -172 c40 -29 109 -76 155 -104 l82 -50 -374 0 -374 1 35 27
c97 75 279 262 280 285 0 5 28 -17 63 -48 34 -31 94 -81 133 -111z m282 -300
c17 -12 22 -25 22 -60 l0 -44 -435 0 -435 0 0 42 c0 81 -19 78 429 78 343 0
400 -2 419 -16z m22 -270 c0 -19 -5 -44 -10 -55 -10 -18 -26 -19 -423 -19
-308 0 -416 3 -425 12 -7 7 -12 31 -12 55 l0 43 435 0 435 0 0 -36z"/>
<path d="M5913 3138 c-15 -7 -25 -26 -34 -62 -38 -166 -172 -399 -322 -561
l-46 -50 -1 220 c0 251 -5 272 -76 309 -35 19 -57 21 -199 21 -186 0 -223 -11
-259 -81 -21 -38 -21 -51 -21 -759 0 -690 1 -722 19 -759 32 -64 71 -76 261
-76 134 0 167 3 201 19 75 34 74 24 74 575 l0 485 25 -25 c31 -30 55 -26 103
19 l32 31 0 -610 0 -611 23 -21 c45 -42 107 -16 107 44 l0 34 544 0 545 0 15
22 c21 30 20 50 -5 82 l-20 26 -260 0 -259 0 0 165 0 165 214 0 c211 0 215 0
230 22 22 32 20 61 -7 86 -22 21 -32 22 -230 22 l-207 0 0 165 0 165 213 0
c195 0 215 2 230 18 24 26 21 65 -6 90 -22 21 -32 22 -230 22 l-207 0 0 165 0
165 239 0 c237 0 240 0 255 22 22 32 20 61 -7 86 -23 21 -31 22 -255 22 l-232
0 -6 28 c-21 91 -37 155 -56 210 -18 56 -25 66 -55 79 -31 12 -38 12 -58 -1
-37 -24 -38 -49 -10 -128 15 -40 32 -99 40 -130 l13 -58 -155 0 c-143 0 -155
1 -150 18 3 9 23 64 45 122 56 150 57 153 26 189 -27 32 -45 37 -81 19z m-549
-274 c14 -14 16 -90 16 -689 0 -599 -2 -675 -16 -689 -21 -22 -230 -23 -260
-2 -18 14 -19 33 -19 691 0 658 1 677 19 691 30 21 239 20 260 -2z m866 -369
l0 -165 -215 0 -215 0 0 132 c0 125 1 133 26 165 l25 33 190 0 189 0 0 -165z
m0 -460 l0 -165 -215 0 -215 0 0 165 0 165 215 0 215 0 0 -165z m0 -460 l0
-165 -215 0 -215 0 0 165 0 165 215 0 215 0 0 -165z"/>
<path d="M16647 3129 c-26 -20 -27 -23 -27 -135 l0 -114 -264 0 c-262 0 -265
0 -280 -22 -21 -30 -20 -50 5 -82 l20 -26 260 0 259 0 0 -145 0 -145 -225 0
c-212 0 -226 -1 -245 -20 -43 -43 -14 -110 46 -110 28 0 32 -5 64 -82 76 -188
188 -388 294 -523 l54 -70 -41 -28 c-143 -96 -327 -185 -521 -252 -88 -30
-125 -48 -139 -67 -24 -32 -16 -63 22 -83 26 -13 36 -12 101 6 174 50 415 163
594 279 l89 58 86 -70 c167 -136 438 -298 497 -298 39 0 74 25 74 53 0 38 -28
66 -103 103 -103 52 -215 123 -338 216 l-108 81 82 87 c103 110 183 221 246
341 96 182 111 272 56 329 -39 41 -93 50 -284 50 l-171 0 0 145 0 145 271 0
271 0 29 29 c35 35 35 40 8 75 l-20 26 -280 0 -279 0 0 113 c0 96 -3 116 -17
129 -32 28 -58 30 -86 7z m437 -812 c17 -12 17 -16 -7 -75 -31 -76 -103 -197
-167 -284 -64 -85 -179 -208 -193 -207 -16 0 -92 96 -167 209 -52 79 -161 288
-183 353 -6 16 15 17 346 17 274 0 357 -3 371 -13z"/>
<path d="M14985 3115 l-25 -24 0 -621 c0 -341 -1 -620 -2 -620 -2 -1 -192 -23
-422 -50 -365 -42 -422 -51 -439 -68 -25 -25 -25 -68 -1 -93 19 -18 28 -18
409 26 215 25 405 47 423 50 l32 6 0 -260 0 -260 26 -20 c33 -26 45 -26 78 0
l26 20 0 269 0 268 73 12 c39 6 85 15 101 21 57 18 73 70 32 108 -25 23 -37
23 -178 -5 l-28 -6 0 612 0 611 -25 24 c-13 14 -31 25 -40 25 -9 0 -27 -11
-40 -25z"/>
<path d="M7745 3043 c-156 -151 -401 -332 -598 -442 -57 -32 -87 -70 -87 -110
0 -21 35 -51 60 -51 9 0 83 41 164 90 l148 91 171 -115 c218 -146 372 -265
359 -278 -17 -17 -227 -86 -345 -112 -110 -25 -362 -67 -489 -81 -70 -8 -108
-34 -108 -75 0 -20 8 -35 25 -46 23 -15 36 -15 175 0 82 9 170 20 195 25 l45
8 0 -283 c0 -173 4 -304 11 -336 14 -64 57 -111 117 -128 30 -8 215 -10 630
-8 539 3 590 4 627 21 48 22 72 43 92 81 12 24 15 87 15 367 -1 377 -1 378
-69 421 -38 23 -39 23 -448 28 l-409 5 124 62 c293 146 481 306 567 481 23 47
28 70 28 134 0 68 -3 80 -25 104 -14 14 -45 36 -70 48 -43 20 -63 21 -424 24
l-379 4 37 37 c57 58 47 121 -18 121 -25 -1 -49 -18 -121 -87z m853 -221 c27
-16 24 -39 -20 -131 -55 -116 -252 -286 -429 -371 l-47 -23 -78 60 c-44 33
-167 122 -274 199 -107 76 -197 143 -200 147 -3 5 33 37 80 73 l85 64 430 -2
c329 -2 435 -6 453 -16z m202 -860 c21 -17 21 -21 21 -311 0 -237 -2 -297 -14
-308 -11 -11 -114 -14 -598 -14 -654 0 -602 -6 -614 75 -4 22 -5 151 -3 284
l3 244 28 24 28 24 563 0 c523 0 565 -1 586 -18z"/>
<path d="M14015 3114 c-96 -27 -231 -44 -395 -51 -180 -6 -200 -13 -200 -63 0
-15 10 -36 23 -48 21 -20 34 -22 145 -22 l122 0 0 -180 0 -180 -168 0 c-151 0
-171 -2 -185 -18 -23 -25 -21 -68 3 -92 18 -18 33 -20 175 -20 86 0 155 -4
155 -9 0 -5 -16 -56 -36 -113 -48 -137 -135 -306 -239 -464 -89 -135 -97 -161
-58 -191 33 -26 61 -15 104 40 65 81 139 193 196 297 l53 95 0 -443 0 -443 25
-24 c13 -14 29 -25 35 -25 16 0 53 21 62 34 4 6 8 251 8 544 0 363 3 531 10
527 13 -8 131 -184 199 -297 52 -87 53 -88 91 -88 48 0 76 33 66 76 -9 34
-136 237 -231 371 -41 57 -75 106 -75 109 0 2 51 4 113 4 106 0 115 2 135 23
26 27 28 54 6 85 -14 21 -21 22 -165 22 l-149 0 0 190 0 189 38 6 c63 11 235
45 237 48 11 14 25 50 25 64 0 51 -49 69 -125 47z"/>
<path d="M15752 3097 c-21 -22 -22 -32 -22 -215 l0 -192 -124 0 c-110 0 -126
-2 -150 -21 -31 -25 -34 -61 -6 -89 18 -18 33 -20 150 -20 l130 0 0 -261 0
-260 -122 -59 c-68 -33 -129 -60 -135 -60 -7 0 -19 -13 -28 -29 -19 -38 -6
-76 30 -93 31 -14 59 -5 178 52 l77 38 -2 -276 -3 -277 -41 -3 c-23 -2 -72 4
-110 13 -65 15 -69 15 -94 -3 -30 -23 -36 -44 -20 -82 10 -24 21 -31 69 -41
31 -7 94 -13 141 -13 90 0 127 12 165 54 19 21 20 38 23 359 l3 336 100 60
c142 85 169 109 169 150 0 34 -28 65 -58 65 -8 0 -53 -24 -100 -53 -48 -29
-93 -57 -99 -61 -10 -6 -13 41 -13 218 l0 226 129 0 c128 0 130 0 150 27 23
28 21 54 -7 86 -13 14 -34 17 -144 17 l-128 0 0 193 c0 189 -1 194 -23 215
-30 28 -58 28 -85 -1z"/>
<path d="M9390 3088 c-26 -14 -53 -37 -65 -58 -19 -33 -20 -52 -20 -375 0
-326 1 -342 21 -380 41 -77 38 -77 436 -76 309 2 354 4 370 18 25 22 23 65 -5
91 -20 19 -35 22 -97 22 -70 0 -73 1 -52 16 33 23 29 75 -13 151 l-35 63 80 0
c70 0 81 2 94 22 21 30 20 50 -5 82 -20 26 -22 26 -151 26 l-130 0 7 43 c4 23
9 45 12 50 2 4 50 7 107 7 85 0 106 3 118 18 30 33 31 60 4 87 -25 25 -25 25
-216 25 -104 0 -190 2 -190 5 0 2 5 16 12 30 l11 25 214 0 c214 0 214 0 238
25 31 30 32 55 2 83 -23 22 -28 22 -363 22 -333 0 -341 0 -384 -22z m160 -114
c0 -18 -66 -126 -91 -150 l-29 -28 0 72 c0 88 17 112 80 112 22 0 40 -3 40 -6z
m160 -190 c0 -3 -5 -25 -11 -50 l-11 -44 -88 0 c-69 0 -92 -4 -108 -17 -31
-28 -35 -56 -11 -86 18 -24 27 -27 80 -27 32 0 59 -4 59 -9 0 -5 -29 -36 -64
-68 -71 -65 -89 -103 -62 -132 10 -11 13 -21 7 -25 -17 -11 -58 12 -64 36 -4
13 -7 99 -7 191 0 163 1 167 19 157 40 -21 68 -12 107 35 36 44 38 45 95 45
33 0 59 -3 59 -6z m112 -282 c18 -25 42 -71 55 -102 15 -38 29 -57 45 -62 13
-3 -60 -6 -161 -7 l-183 -1 69 68 c38 37 82 89 97 115 15 26 32 45 37 41 5 -3
23 -26 41 -52z"/>
<path d="M10307 3080 c-37 -32 -57 -88 -57 -159 0 -21 -3 -47 -6 -56 -7 -18
-55 -45 -80 -45 -39 0 -58 -65 -26 -92 30 -26 48 -27 107 -3 97 40 125 76 136
174 4 36 13 67 20 72 8 5 55 9 106 9 116 0 123 -6 123 -99 0 -75 23 -124 70
-148 21 -11 -15 -13 -207 -13 -226 0 -233 -1 -253 -22 -11 -12 -20 -32 -20
-45 0 -30 33 -63 63 -63 18 0 28 -11 47 -52 13 -28 42 -79 66 -114 l43 -63
-72 -29 c-40 -17 -91 -36 -115 -43 -72 -21 -95 -80 -46 -118 15 -12 34 -21 44
-21 24 0 151 53 238 100 l73 40 46 -31 c25 -18 87 -54 137 -80 l91 -49 -806 0
-807 0 -16 -25 c-21 -32 -20 -68 2 -88 16 -15 53 -17 315 -17 l297 0 0 -35 0
-35 -147 0 c-168 0 -212 -13 -255 -71 -43 -58 -48 -90 -48 -310 0 -219 4 -246
46 -290 47 -49 64 -50 736 -47 797 4 719 -34 719 347 1 288 -4 307 -77 345
-35 19 -60 21 -226 24 l-188 3 0 35 0 34 334 0 335 0 20 26 c12 15 21 32 21
39 0 7 -9 24 -21 39 -19 25 -25 26 -117 27 -66 0 -90 3 -75 9 12 5 27 18 33
29 22 41 3 65 -98 124 -152 88 -147 68 -43 174 84 84 91 95 91 131 0 53 -30
88 -88 106 -46 14 -45 15 90 15 135 1 137 1 157 27 12 15 21 32 21 39 0 7 -9
24 -21 39 -20 25 -23 26 -134 26 -131 0 -125 -5 -125 104 0 60 -4 78 -22 101
-37 47 -72 55 -242 55 l-155 0 -34 -30z m393 -501 c0 -13 -58 -68 -112 -105
-45 -32 -50 -29 -109 58 l-40 58 131 0 c89 0 130 -4 130 -11z m-450 -614 l0
-35 -145 0 -145 0 0 35 0 35 145 0 145 0 0 -35z m-447 -197 c-24 -42 -94 -78
-151 -78 -32 0 -49 -6 -67 -25 -14 -13 -25 -29 -25 -35 0 -16 21 -53 34 -62
38 -26 194 11 265 62 42 31 91 113 91 153 0 15 14 17 149 17 l148 0 5 -69 c3
-40 13 -81 24 -99 31 -53 64 -62 228 -62 133 0 148 2 166 20 24 24 26 67 3 92
-14 15 -33 18 -137 18 -67 0 -127 4 -134 9 -8 4 -16 27 -19 50 l-6 41 165 0
c172 0 196 -5 199 -45 1 -11 1 -64 1 -117 l-2 -98 -620 0 -620 0 0 109 c0 106
1 110 26 130 24 19 40 21 161 21 l135 0 -19 -32z m941 -380 c-15 -50 10 -48
-620 -48 -525 0 -594 2 -608 16 -9 8 -16 24 -16 35 0 19 14 19 626 19 l625 0
-7 -22z"/>
<path d="M14366 3058 c-34 -48 -23 -69 100 -199 64 -68 175 -190 246 -271 135
-154 150 -164 199 -138 14 8 19 21 19 52 0 37 -8 50 -96 152 -53 61 -161 182
-241 269 -132 142 -149 157 -179 157 -23 0 -38 -7 -48 -22z"/>
<path d="M11234 2875 c-15 -23 -14 -31 21 -155 20 -71 47 -179 59 -240 23
-112 33 -132 73 -145 17 -4 30 1 49 20 25 26 26 30 21 98 -12 136 -90 409
-124 435 -29 21 -81 15 -99 -13z"/>
<path d="M1790 2735 c0 -8 -7 -15 -15 -15 -12 0 -15 -14 -15 -65 0 -51 -3 -65
-15 -65 -12 0 -15 -13 -15 -55 0 -30 -4 -55 -10 -55 -6 0 -10 -28 -10 -65 0
-51 -3 -65 -15 -65 -12 0 -15 -14 -15 -65 0 -51 -3 -65 -15 -65 -12 0 -15 -14
-15 -70 0 -40 -4 -70 -10 -70 -5 0 -10 -22 -10 -50 0 -38 -4 -50 -15 -50 -12
0 -15 -14 -15 -70 0 -56 -3 -70 -15 -70 -12 0 -15 -14 -15 -65 0 -37 -4 -65
-10 -65 -6 0 -10 -28 -10 -65 0 -51 -3 -65 -15 -65 -12 0 -15 -13 -15 -55 0
-42 -3 -55 -15 -55 -12 0 -15 -14 -15 -65 0 -37 -4 -65 -10 -65 -6 0 -10 -30
-10 -70 0 -56 -3 -70 -15 -70 -12 0 -15 -14 -15 -65 0 -51 -3 -65 -15 -65 -12
0 -15 -13 -15 -55 0 -30 -4 -55 -10 -55 -6 0 -10 -28 -10 -65 0 -51 -3 -65
-15 -65 -12 0 -15 -13 -15 -55 0 -52 1 -55 25 -55 14 0 25 -4 25 -10 0 -5 14
-10 30 -10 20 0 30 -5 30 -15 0 -9 9 -15 25 -15 16 0 25 -6 25 -15 0 -11 11
-15 40 -15 22 0 40 -4 40 -10 0 -5 18 -10 40 -10 29 0 40 -4 40 -15 0 -11 11
-15 40 -15 29 0 40 -4 40 -15 0 -12 13 -15 55 -15 30 0 55 -4 55 -10 0 -6 33
-10 80 -10 64 0 80 -3 80 -15 0 -13 33 -15 235 -15 202 0 235 2 235 15 0 12
16 15 80 15 47 0 80 4 80 10 0 6 25 10 55 10 42 0 55 3 55 15 0 12 13 15 55
15 42 0 55 3 55 15 0 9 9 15 25 15 14 0 25 5 25 10 0 6 18 10 40 10 29 0 40 4
40 15 0 9 9 15 25 15 16 0 25 6 25 15 0 10 10 15 30 15 17 0 30 5 30 10 0 6
11 10 25 10 16 0 25 6 25 15 0 9 9 15 25 15 16 0 25 6 25 15 0 9 10 15 26 15
26 0 54 20 54 39 0 6 14 11 30 11 17 0 30 5 30 11 0 14 25 39 39 39 6 0 11 7
11 15 0 9 9 15 25 15 16 0 25 6 25 15 0 8 7 15 15 15 8 0 15 5 15 10 0 6 7 10
15 10 8 0 15 7 15 15 0 8 5 15 10 15 6 0 10 7 10 15 0 8 7 15 15 15 8 0 15 5
15 10 0 6 7 10 15 10 8 0 15 7 15 15 0 8 5 15 10 15 6 0 10 7 10 15 0 8 7 15
15 15 8 0 15 5 15 10 0 6 7 10 15 10 8 0 15 7 15 15 0 8 5 15 10 15 6 0 10 7
10 15 0 8 7 15 15 15 8 0 15 5 15 10 0 6 7 10 15 10 8 0 15 7 15 15 0 8 5 15
10 15 6 0 10 11 10 25 0 16 6 25 15 25 8 0 15 7 15 15 0 8 7 15 15 15 8 0 15
7 15 15 0 8 5 15 10 15 6 0 10 11 10 25 0 16 6 25 15 25 8 0 15 7 15 15 0 8 7
15 15 15 9 0 15 9 15 25 0 14 5 25 10 25 6 0 10 11 10 25 0 16 6 25 15 25 10
0 15 10 15 30 0 20 5 30 15 30 9 0 15 9 15 25 0 14 5 25 10 25 6 0 10 11 10
25 0 16 6 25 15 25 11 0 15 11 15 40 0 29 4 40 15 40 11 0 15 11 15 40 0 22 5
40 10 40 6 0 10 18 10 40 0 29 4 40 15 40 12 0 15 14 15 70 0 56 3 70 15 70
12 0 15 16 15 80 0 47 4 80 10 80 6 0 10 77 10 210 0 133 -4 210 -10 210 -5 0
-10 25 -10 55 l0 55 -480 0 -480 0 0 -55 c0 -42 -3 -55 -15 -55 -12 0 -15 -17
-15 -95 0 -78 -3 -95 -15 -95 -12 0 -15 -15 -15 -75 0 -43 -4 -75 -10 -75 -6
0 -10 -38 -10 -95 l0 -95 145 0 c122 0 145 -2 145 -15 0 -8 5 -15 11 -15 26 0
39 -30 39 -90 0 -60 -13 -90 -39 -90 -6 0 -11 -7 -11 -15 0 -13 -35 -15 -255
-15 -175 0 -255 3 -255 11 0 14 -25 39 -39 39 -7 0 -11 41 -11 120 0 100 3
120 15 120 12 0 15 16 15 80 0 47 4 80 10 80 6 0 10 38 10 95 0 78 3 95 15 95
12 0 15 17 15 90 0 73 3 90 15 90 10 0 15 10 15 30 l0 30 -585 0 c-513 0 -585
-2 -585 -15z m370 -135 c0 -5 7 -10 15 -10 8 0 15 -7 15 -15 0 -8 5 -15 10
-15 6 0 10 -7 10 -15 0 -8 7 -15 15 -15 11 0 15 -12 15 -50 0 -38 -4 -50 -15
-50 -12 0 -15 -13 -15 -55 0 -30 -4 -55 -10 -55 -6 0 -10 -28 -10 -65 0 -51
-3 -65 -15 -65 -12 0 -15 -14 -15 -65 0 -51 -3 -65 -15 -65 -11 0 -15 -11 -15
-40 0 -22 -4 -40 -10 -40 -5 0 -10 -7 -10 -15 0 -8 -7 -15 -15 -15 -8 0 -15
-7 -15 -15 0 -12 -14 -15 -65 -15 -51 0 -65 3 -65 15 0 8 -7 15 -15 15 -8 0
-15 7 -15 15 0 8 -7 15 -15 15 -12 0 -15 14 -15 65 0 51 3 65 15 65 12 0 15
13 15 55 0 42 3 55 15 55 12 0 15 14 15 65 0 37 4 65 10 65 6 0 10 28 10 65 0
51 3 65 15 65 11 0 15 11 15 40 0 29 4 40 15 40 8 0 15 7 15 15 0 9 9 15 25
15 14 0 25 5 25 10 0 6 18 10 40 10 22 0 40 -4 40 -10z m500 0 c0 -5 7 -10 15
-10 8 0 15 -7 15 -15 0 -8 7 -15 15 -15 12 0 15 -18 15 -105 0 -87 -3 -105
-15 -105 -12 0 -15 -14 -15 -65 0 -51 -3 -65 -15 -65 -12 0 -15 -14 -15 -70 0
-40 -4 -70 -10 -70 -6 0 -10 -28 -10 -65 0 -51 -3 -65 -15 -65 -8 0 -15 -7
-15 -15 0 -8 -7 -15 -15 -15 -8 0 -15 -4 -15 -10 0 -6 -27 -10 -61 -10 -59 0
-89 13 -89 39 0 6 -7 11 -15 11 -12 0 -15 16 -15 80 0 64 3 80 15 80 12 0 15
14 15 65 0 37 4 65 10 65 6 0 10 33 10 80 0 64 3 80 15 80 12 0 15 14 15 65 0
37 4 65 10 65 6 0 10 14 10 30 0 27 3 30 30 30 17 0 30 5 30 10 0 6 23 10 50
10 28 0 50 -4 50 -10z"/>
<path d="M14246 2519 c-55 -43 -47 -54 221 -323 260 -260 279 -274 328 -242
28 19 32 44 11 84 -24 46 -490 502 -513 502 -11 0 -32 -9 -47 -21z"/>
<path d="M11895 1554 c-70 -61 -240 -170 -303 -195 -57 -22 -61 -26 -73 -66
-15 -56 5 -93 52 -93 46 0 190 79 311 170 120 90 148 120 148 160 0 66 -72 79
-135 24z"/>
<path d="M12678 1579 c-13 -7 -18 -23 -18 -52 0 -39 4 -45 62 -92 34 -27 103
-88 153 -135 113 -108 142 -130 170 -130 27 0 50 25 59 63 6 26 -1 37 -76 114
-46 47 -127 121 -181 164 -99 80 -129 92 -169 68z"/>
</g>
</svg>
